<svg width="120" height="120" viewBox="0 0 120 120" fill="none" xmlns="http://www.w3.org/2000/svg">
<g clip-path="url(#clip0_45_1600)">
<path d="M92.7656 36.2812C93.3047 37.3828 94.6641 37.8516 95.7656 37.2891C96.8672 36.75 97.3359 35.3906 96.7734 34.2891C90.0703 20.7188 75.6563 11.9297 60.0234 11.9297C38.3672 11.9297 20.6016 28.3125 19.4297 48.8906C17.0156 49.1016 14.6953 49.6875 12.5859 50.6484C12.9141 44.8594 14.2969 39.2813 16.6875 34.0078C17.2031 32.8828 16.6875 31.5469 15.5625 31.0312C14.4375 30.5156 13.1016 31.0312 12.5859 32.1562C9.5625 38.8594 8.01563 46.0312 8.01563 53.4375C3.1875 57.3047 0.0703125 63.2578 0.0703125 69.9141C0.0703125 81.5625 9.53906 91.0312 21.1875 91.0312H25.2891C26.5313 91.0312 27.5391 90.0234 27.5391 88.7812V81.2812C27.5391 80.0391 26.5313 79.0313 25.2891 79.0313C24.0469 79.0313 23.0391 80.0391 23.0391 81.2812V86.5313H21.1641C12 86.5313 4.54688 79.0781 4.54688 69.9141C4.54688 60.75 12 53.2969 21.1641 53.2969H23.0391V72.3281C23.0391 73.5703 24.0469 74.5781 25.2891 74.5781C26.5313 74.5781 27.5391 73.5703 27.5391 72.3281V51.0469C27.5391 49.8047 26.5313 48.7969 25.2891 48.7969H23.9297C25.1484 30.7266 40.8516 16.4062 60.0234 16.4062C73.9688 16.4297 86.8125 24.2109 92.7656 36.2812Z" fill="#1C1C1C" fill-opacity="0.77"/>
<path d="M111.516 53.0625C111.281 24.7266 88.1719 1.75782 59.7891 1.75782C45.211 1.73438 31.2188 7.94532 21.4219 18.75C20.6016 19.6641 20.6719 21.0938 21.586 21.9141C22.5 22.7578 23.9297 22.6875 24.75 21.75C33.7032 11.8594 46.4766 6.21094 59.7891 6.21094C84.8204 6.21094 105.352 25.7813 106.945 50.4141C104.977 49.5938 102.867 49.0781 100.641 48.8906C100.523 46.9453 100.266 45 99.8672 43.1016C99.6094 41.8828 98.4141 41.1328 97.1954 41.3906C95.9766 41.6484 95.2032 42.8438 95.4844 44.0625C95.8125 45.6328 96.0235 47.2266 96.1407 48.8438H94.7813C93.5391 48.8438 92.5313 49.8516 92.5313 51.0938V88.8281C92.5313 90.0703 93.5391 91.0781 94.7813 91.0781H98.8829C101.484 91.0781 104.016 90.5859 106.383 89.6953V95.25C106.383 98.8594 104.977 102.234 102.422 104.789C99.8672 107.344 96.4922 108.75 92.8828 108.75H84.9844C84.8907 108.75 84.8204 108.773 84.7266 108.773V105.117C84.7266 103.875 83.7188 102.867 82.4766 102.867H71.3438C68.0391 102.867 65.3672 105.539 65.3672 108.844V112.336C65.3672 115.641 68.0391 118.312 71.3438 118.312H82.4766C83.7188 118.312 84.7266 117.305 84.7266 116.063V113.203C84.8204 113.203 84.8907 113.227 84.9844 113.227H92.8828C97.6875 113.227 102.188 111.352 105.586 107.953C108.984 104.555 110.859 100.055 110.859 95.25V87.3281C111.797 86.6953 112.688 85.9922 113.508 85.1953C114.398 84.3281 114.422 82.9219 113.578 82.0312C112.711 81.1406 111.305 81.1172 110.414 81.9609C109.5 82.8516 108.469 83.6016 107.414 84.2344C107.414 84.2344 107.391 84.2344 107.391 84.2578C104.836 85.7812 101.93 86.6016 98.9063 86.6016H97.0313V53.2969H98.9063C108.07 53.2969 115.523 60.75 115.523 69.9141C115.523 72.0469 115.125 74.1094 114.352 76.0547C113.883 77.2031 114.445 78.5156 115.594 78.9609C116.742 79.4062 118.055 78.8672 118.5 77.7188C119.484 75.2344 120 72.6094 120 69.9141C120 63.0234 116.648 56.9062 111.516 53.0625ZM80.2735 113.766H71.3672C70.5469 113.766 69.8672 113.086 69.8672 112.266V108.773C69.8672 107.953 70.5469 107.273 71.3672 107.273H80.2735V113.766Z" fill="#1C1C1C" fill-opacity="0.77"/>
</g>
<defs>
<clipPath id="clip0_45_1600">
<rect width="120" height="120" fill="white"/>
</clipPath>
</defs>
</svg>
