<svg width="120" height="120" viewBox="0 0 120 120" fill="none" xmlns="http://www.w3.org/2000/svg">
<g clip-path="url(#clip0_38_1581)">
<path d="M109.435 29.8406C109.214 29.5445 108.937 29.2947 108.619 29.1056C108.302 28.9166 107.95 28.7919 107.584 28.7388C107.219 28.6857 106.846 28.7052 106.488 28.7961C106.13 28.8871 105.793 29.0477 105.497 29.2688L60.1315 63.1313C59.9693 63.253 59.7719 63.3188 59.569 63.3188C59.3662 63.3188 59.1688 63.253 59.0065 63.1313L14.5315 29.1188C14.2379 28.8947 13.903 28.7307 13.546 28.636C13.189 28.5414 12.8168 28.518 12.4507 28.5672C12.0847 28.6164 11.7319 28.7372 11.4125 28.9227C11.0931 29.1082 10.8134 29.3548 10.5894 29.6485C10.3653 29.9421 10.2012 30.277 10.1066 30.634C10.012 30.991 9.98856 31.3632 10.0377 31.7293C10.0869 32.0953 10.2077 32.4481 10.3933 32.7675C10.5788 33.0869 10.8254 33.3666 11.119 33.5907L46.0878 60.3375L11.5034 86.4C11.2055 86.6222 10.9542 86.901 10.764 87.2203C10.5738 87.5396 10.4483 87.8933 10.3948 88.2611C10.3413 88.6289 10.3607 89.0036 10.452 89.3639C10.5433 89.7242 10.7046 90.063 10.9269 90.361C11.1491 90.6589 11.4278 90.9101 11.7471 91.1004C12.0664 91.2906 12.4201 91.416 12.7879 91.4696C13.1557 91.5231 13.5305 91.5037 13.8908 91.4124C14.2511 91.3211 14.5899 91.1597 14.8878 90.9375L50.7284 63.8813L55.5847 67.6313C56.717 68.498 58.1009 68.9724 59.5268 68.9825C60.9528 68.9927 62.3432 68.5381 63.4878 67.6875L68.5878 63.8813L104.85 90.9375C105.146 91.1585 105.483 91.319 105.841 91.4099C106.199 91.5007 106.572 91.5202 106.937 91.4671C107.303 91.414 107.655 91.2894 107.972 91.1004C108.29 90.9114 108.567 90.6617 108.788 90.3656C109.009 90.0696 109.169 89.7328 109.26 89.3747C109.351 89.0166 109.37 88.6441 109.317 88.2785C109.264 87.9128 109.14 87.5612 108.951 87.2438C108.762 86.9263 108.512 86.6491 108.216 86.4281L73.2847 60.3281L108.863 33.75C109.453 33.3044 109.844 32.6443 109.951 31.9127C110.058 31.181 109.872 30.4366 109.435 29.8406Z" fill="#1C1C1C" fill-opacity="0.77"/>
<path d="M105.938 17.8125H14.0625C10.3329 17.8125 6.75604 19.2941 4.11881 21.9313C1.48158 24.5685 0 28.1454 0 31.875L0 88.125C0 91.8546 1.48158 95.4315 4.11881 98.0687C6.75604 100.706 10.3329 102.188 14.0625 102.188H105.938C109.667 102.188 113.244 100.706 115.881 98.0687C118.518 95.4315 120 91.8546 120 88.125V31.875C120 28.1454 118.518 24.5685 115.881 21.9313C113.244 19.2941 109.667 17.8125 105.938 17.8125ZM114.375 88.125C114.375 90.3628 113.486 92.5089 111.904 94.0912C110.321 95.6736 108.175 96.5625 105.938 96.5625H14.0625C11.8247 96.5625 9.67862 95.6736 8.09629 94.0912C6.51395 92.5089 5.625 90.3628 5.625 88.125V31.875C5.625 29.6372 6.51395 27.4911 8.09629 25.9088C9.67862 24.3264 11.8247 23.4375 14.0625 23.4375H105.938C108.175 23.4375 110.321 24.3264 111.904 25.9088C113.486 27.4911 114.375 29.6372 114.375 31.875V88.125Z" fill="#1C1C1C" fill-opacity="0.77"/>
</g>
<defs>
<clipPath id="clip0_38_1581">
<rect width="120" height="120" fill="white"/>
</clipPath>
</defs>
</svg>
